<?xml version="1.0" encoding="UTF-8"?>
<svg id="Layer_2" xmlns="http://www.w3.org/2000/svg" version="1.1" xmlns:xlink="http://www.w3.org/1999/xlink" viewBox="0 0 338 321.4">
  <!-- Generator: Adobe Illustrator 29.3.1, SVG Export Plug-In . SVG Version: 2.1.0 Build 151)  -->
  <defs>
    <style>
      .st0 {
        fill: url(#linear-gradient4);
      }

      .st0, .st1, .st2, .st3, .st4, .st5, .st6, .st7 {
        opacity: .8;
      }

      .st1 {
        fill: url(#linear-gradient);
      }

      .st2 {
        fill: url(#linear-gradient1);
      }

      .st8 {
        display: none;
      }

      .st8, .st9 {
        fill: #ffbc00;
      }

      .st3 {
        fill: url(#linear-gradient5);
      }

      .st4 {
        fill: url(#linear-gradient2);
      }

      .st10 {
        fill: #0097ff;
      }

      .st5 {
        fill: url(#linear-gradient6);
      }

      .st6 {
        fill: url(#linear-gradient3);
      }

      .st7 {
        fill: url(#linear-gradient7);
      }
    </style>
    <linearGradient id="linear-gradient" x1="270.8" y1="252.6" x2="292.4" y2="240.5" gradientTransform="translate(0 324) scale(1 -1)" gradientUnits="userSpaceOnUse">
      <stop offset=".2" stop-color="#fff" stop-opacity="0"/>
      <stop offset=".8" stop-color="#000"/>
    </linearGradient>
    <linearGradient id="linear-gradient1" x1="295.9" y1="224.9" x2="289.8" y2="238.5" gradientTransform="translate(0 324) scale(1 -1)" gradientUnits="userSpaceOnUse">
      <stop offset=".3" stop-color="#fff" stop-opacity="0"/>
      <stop offset=".9" stop-color="#000"/>
    </linearGradient>
    <linearGradient id="linear-gradient2" x1="249.8" y1="211.4" x2="241.8" y2="228.4" gradientTransform="translate(0 324) scale(1 -1)" gradientUnits="userSpaceOnUse">
      <stop offset=".3" stop-color="#fff" stop-opacity="0"/>
      <stop offset=".9" stop-color="#000"/>
    </linearGradient>
    <linearGradient id="linear-gradient3" x1="228.8" y1="238.8" x2="234.3" y2="247.1" gradientTransform="translate(0 324) scale(1 -1)" gradientUnits="userSpaceOnUse">
      <stop offset=".3" stop-color="#fff" stop-opacity="0"/>
      <stop offset=".9" stop-color="#000"/>
    </linearGradient>
    <linearGradient id="linear-gradient4" x1="220.5" y1="302.8" x2="210.9" y2="300" gradientTransform="translate(0 324) scale(1 -1)" gradientUnits="userSpaceOnUse">
      <stop offset="0" stop-color="#fff" stop-opacity="0"/>
      <stop offset=".9" stop-color="#000"/>
    </linearGradient>
    <linearGradient id="linear-gradient5" x1="251.9" y1="276.8" x2="263.3" y2="275.8" gradientTransform="translate(0 324) scale(1 -1)" gradientUnits="userSpaceOnUse">
      <stop offset="0" stop-color="#fff" stop-opacity="0"/>
      <stop offset=".9" stop-color="#000"/>
    </linearGradient>
    <linearGradient id="linear-gradient6" x1="241.9" y1="261.4" x2="230.8" y2="250.2" gradientTransform="translate(0 324) scale(1 -1)" gradientUnits="userSpaceOnUse">
      <stop offset="0" stop-color="#fff" stop-opacity="0"/>
      <stop offset=".9" stop-color="#000"/>
    </linearGradient>
    <linearGradient id="linear-gradient7" x1="199.5" y1="282.9" x2="212.5" y2="296.5" gradientTransform="translate(0 324) scale(1 -1)" gradientUnits="userSpaceOnUse">
      <stop offset=".2" stop-color="#fff" stop-opacity="0"/>
      <stop offset=".8" stop-color="#000"/>
    </linearGradient>
  </defs>
  <path class="st10" d="M265.6,72.1l.6-2.1-3.9-4.8s-6.5-2-6.5-2-1,.2-1,.2l-.6.7-.2.5,3.4,2.3,8.3,5.2Z"/>
  <path class="st9" d="M103.8,153.7c-1.5-1-2.8-2.1-4.1-3.2-1.2-1.1-2.2-2.1-3-3-.4.3-1,1.1-1.8,2.5s-1.6,2.9-2.3,4.5c-.7,1.6-1.4,3.1-2,4.5s-.9,2.2-.9,2.5c.2.6.6,1.3,1.3,2.1.7.8,1.6,1.6,2.6,2.5s2.1,1.7,3.3,2.5c1.2.8,2.4,1.6,3.5,2.2,1.2.7,2.2,1.2,3.2,1.6,1,.4,1.8.6,2.4.6s.6-.5,1.2-1.5,1.2-2.2,1.9-3.7c.7-1.5,1.3-3,2-4.7.6-1.6,1.1-3.1,1.3-4.4-1.3-.5-2.8-1.2-4.3-2.1-1.5-.9-3-1.9-4.5-3h.2Z"/>
  <path class="st9" d="M120.3,143.4c-.7.7-1.4,1.7-2.2,3.1-.8,1.4-1.5,2.7-2.2,4.2-.7,1.4-1.2,2.7-1.7,3.9s-.7,1.9-.7,2.3c.3.9.9,1.8,1.7,2.7.8.9,1.7,1.8,2.8,2.7,1,.9,2.1,1.7,3.3,2.4,1.2.8,2.3,1.4,3.3,2s2,1,2.8,1.4c.8.3,1.4.5,1.8.5s.4-.2.8-.7c.4-.5.8-1.2,1.4-2.3s1.3-2.5,2.1-4.3,1.7-4,2.8-6.6c-3-1.1-5.9-2.7-8.7-4.7-2.9-2-5.3-4.2-7.2-6.6h-.1Z"/>
  <path class="st9" d="M196.9,175.8c-1.5-1-3-2.2-4.5-3.4-1.5-1.3-3-2.7-4.5-4.2-.4.4-.8,1-1.4,1.8-.5.8-1,1.8-1.6,2.8-.5,1-1.1,2.1-1.6,3.3-.5,1.1-1,2.2-1.4,3.1-.4,1-.7,1.8-1,2.5-.2.7-.4,1.1-.4,1.3.7,1.5,1.9,3,3.5,4.5,1.6,1.4,3.2,2.7,4.9,3.8s3.2,2,4.7,2.7c1.4.7,2.4,1,2.9,1s.9-.5,1.6-1.6c.7-1.1,1.5-2.4,2.4-4,.8-1.6,1.6-3.2,2.4-4.9.8-1.7,1.3-3.1,1.8-4.3h0c-1.1-.5-2.3-1-3.6-1.7s-2.7-1.6-4.2-2.6h0Z"/>
  <path class="st10" d="M279.2,124.8c-.1-.4-.4-1-.4-1l9.8-7.1,3.1-3h2.6c0-.1.4,2.9.4,3s-3.9,6.8-3.9,6.8l-11.2,3-.5-1.6Z"/>
  <path class="st9" d="M285.6,79c-1,1.2-1.9,2.4-2.7,3.6-.6,1-1.2,1.9-1.6,2.9,0,0,0,.2-.1.3l5.8,5.8c.1,0,.3-.2.4-.4.8-.6,1.6-1.2,2.4-1.7,1.1-.7,2.4-1.4,3.7-1.9.2,0,.4,0,.5-.2l-8.4-8.4h0ZM236.3,89.1c-.1,0-.2.3-.4.4-1.7,1.9-3.5,3.8-5.4,5.7,1,1.6,2.2,3,3.5,4.3l2.9,3c2.4-1.1,4.8-2.4,7.3-3.9h0l-4.7-4.7c-1.4-1.4-2.6-3.1-3.4-4.8h.2Z"/>
  <path class="st9" d="M302.8,106.7c0,1.7-.2,3.3-.5,4.9-1,4.9-3.4,9.5-7,13.1,0,0-6.6,6.6-18,7.5-3.1.2-5.6-.5-5.6-.5s-.4-.2-.8-.3c-4.4-1.1-8.3-3.4-11.6-6.7l-22.2-22.2c2.4-1.1,4.8-2.4,7.3-3.9l20.5,20.5c3.4,3.4,7.9,5.1,12.4,5.1s1,0,1.5,0c4-.3,7.8-2,10.9-5.1,3.1-3.1,3.1-3.9,4-6.1,2.4-6.3,1.1-13.6-4-18.7l-2.7-2.7c.1-.1.3-.2.4-.4.8-.6,1.6-1.2,2.4-1.7,1.1-.7,2.4-1.4,3.7-1.9.2,0,.4-.1.5-.2l1.3,1.3c4.8,4.8,7.5,11.2,7.5,18h0Z"/>
  <path class="st9" d="M285.6,79c-1,1.2-1.9,2.4-2.7,3.6-.6,1-1.2,1.9-1.6,2.9,0,0,0,.2-.1.3l-15.2-15.2-1.4-1.5c-2.9-2.9-6.4-4.5-10.1-5-.7,0-1.5-.1-2.2-.1-4.5,0-9,1.7-12.4,5.1-5.4,5.4-6.5,13.5-3.4,20-.1.1-.2.3-.4.4-1.7,1.9-3.5,3.8-5.4,5.7-2.6-4.1-4-8.8-4-13.7s2.7-13.2,7.5-18.1c3.1-3.1,6.9-5.3,11-6.5.8-.2,3.9-1.1,7-1,1.1,0,3,.2,4.9.6.3,0,.5,0,.8.1,0,0,4.6.9,8.5,3.7,0,0,.5.3,1,.7.4.3.6.4.8.6.3.2.7.5,1,.9.4.4.8.7,1,.9,5.1,5.2,10.3,10.4,15.4,15.6Z"/>
  <path class="st1" d="M285.7,79.1c-.9.9-1.8,2.1-2.7,3.5-.7,1-1.2,2-1.6,2.9,0,.1,0,.2-.1.3-5.1-5.1-10.1-10.1-15.2-15.2.1-.4.2-.9.3-1.4,0,0,.2-.8.3-1.4.2-1,.5-3.5.8-6.8.5.3.9.7,1.4,1.1.5.4,1,.9,1.4,1.3l15.4,15.6Z"/>
  <path class="st9" d="M260.2,45.3c0,0-.2-.2-.3-.4l-7.2-7.2-14.5-14.5c-2.8-2.8-6.3-4.8-10.1-5.8-1.8-.4-3.6-.7-5.4-.7-3.6,0-7,.8-10.1,2.4-2,1-3.9,2.4-5.5,4s-2.7,3.1-3.7,4.9c1.1.5,2,1,2.9,1.7,1.1.9,1.9,1.9,2.5,3,.7-1.7,1.8-3.3,3.2-4.7.9-.9,1.6-1.4,2.3-1.9,2.5-1.7,5.5-2.5,8.4-2.5s3.8.4,5.5,1c1.9.7,3.6,1.9,5.2,3.4l21.7,21.7c1.5,1.5,2.6,3.3,3.4,5.2.2.7.5,1.3.6,2,.7,2.7.5,5.6-.4,8.3-.7,2.2-1.9,4.2-3.6,5.9-2.2,2.2-4.9,3.5-7.7,4.1-1.6,2.3-3.4,4.6-5.4,7.1.8,0,1.6.1,2.4.1,5.9,0,11.4-2.3,15.6-6.4,2-2,3.6-4.3,4.6-6.9,1.2-2.7,1.8-5.7,1.8-8.7v-.2c0-1.5-.1-3.5-.8-5.7-1.3-4.5-3.7-7.4-5.2-9,0,0-.1-.1-.2-.2Z"/>
  <path class="st2" d="M294.3,103.8c2.8,0,5.8,0,7.9-1.4-.8-5.3-3.3-10.1-7.1-13.9l-1.3-1.3c-.2,0-.4,0-.5.2-1.3.5-2.5,1.2-3.7,1.9-.9.5-1.7,1.1-2.4,1.7-.1,0-.3.2-.4.4l2.7,2.7c2.7,2.7,4.3,6.1,4.9,9.6h-.1Z"/>
  <path class="st4" d="M257.2,111.4l-12.9-12.9h0c-2.5,1.5-4.9,2.8-7.3,3.9l14.9,14.9c1.7-2,3.5-4,5.3-6h0Z"/>
  <path class="st6" d="M235.7,87.6c-1.1-3.2-1.3-6.7-.4-10-1.1,0-2.1-.5-3-1.4-.4-.4-.7-.8-1-1.2-1.1-.3-2.1-1-2.8-2.3-1.1,2.9-1.7,6.1-1.7,9.3s.7,7,2.1,10.2c2.4-1.3,4.7-2.8,6.8-4.5h0Z"/>
  <path class="st0" d="M227.2,17.2c-1.5-.3-3-.5-4.5-.5-3.6,0-7,.8-10.1,2.4-.5.2-1,.5-1.4.8.2.4.4.8.6,1.2.7,1.9,1,4.1,1.2,6.1.4-.3.8-.8,1.3-1.1,2.5-1.7,5.5-2.5,8.4-2.5s2.9.2,4.3.6c-.2-2.4-.1-4.7.4-6.9h-.1Z"/>
  <path class="st9" d="M203.5,27.8l-.6,1.3,3.9,4.3,1.8-.5h.2c0-.1.2-.5.2-.5,0,0,.8-1.8.8-2.1s-2.2-2.8-2.2-2.8-3.5-.6-3.5-.6l-.6.9Z"/>
  <path class="st3" d="M258.6,55c0,.3.1.5.2.8,0,.3.2.6.3.9h0c.9-3.4,1.9-6.3,2.6-9.7-.5-.6-.9-1.2-1.5-1.7,0,0-.2-.2-.3-.4l-6.4-6.4c-.5.7-1.3,1.6-2.4,2.5-1,.9-2,1.4-2.8,1.8,2.3,2.3,4.5,4.5,6.8,6.8.6.6,1.3,1.4,2,2.5.6,1,1.1,1.9,1.4,2.7v.2Z"/>
  <path class="st5" d="M234.3,63.3c-.8.8-1.8,1.9-2.7,3.3-.9,1.4-1.5,2.7-2,3.8.9.9,1.8,1.8,2.9,2.7,1.1,1,2.2,1.8,3.2,2.6.6-1.8,1.9-4.4,4.3-6.8.7-.7,1.4-1.3,2.1-1.7,0-1.4.2-3.3.3-4.6,0-1.5.2-3.4.3-4.9-1.3.5-2.8,1.3-4.4,2.3-1.7,1.1-3,2.2-4,3.2Z"/>
  <path class="st9" d="M247.3,75.3c-.8,1.1-1.6,2.3-2.5,3.5-1,1.3-1.9,2.5-2.9,3.6-5-.5-9.6-2.7-13.2-6.3l-18.1-18.1-3.6-3.6c-1.3-1.3-2.4-2.7-3.3-4.3-2-3.4-3.1-7.3-3.1-11.3s1-7.5,2.8-10.7c1.1.5,2,1,2.9,1.7,1.1.9,1.9,1.9,2.5,3-1.4,3.2-1.6,6.8-.6,10.1.7,2.4,2,4.6,3.8,6.5l.6.6,21.1,21.1c1,.8,4.1,3.1,7.7,4.1,1.4.4,3.4.9,5.7.2.1,0,.2,0,.3,0Z"/>
  <polygon class="st9" points="270.9 131.3 270.8 131.5 271.5 131.8 272.6 132.1 271.9 131 270.9 131.3"/>
  <path class="st7" d="M207.8,41.4c-.5-2.9-.2-5.9,1-8.6-.6-1.1-1.3-2.3-2.4-3.1-.8-.7-1.8-1.3-2.9-1.8-1.8,3.2-2.9,7.1-2.9,10.9s.2,3.7.7,5.5c2.3-.7,4.4-1.6,6.5-2.8h0Z"/>
  <path class="st8" d="M296,95.7l-6.2-6.2-6.9-6.9-16.2-16.2c-.3,1.8-.6,3.5-1,5.1l20.6,20.6,6.7,6.6c3.8,3.8,5.2,9.2,4,14.2,1.4,0,2.7-.4,3.9-.8.2,0,.5-.2.7-.3.8-5.7-1.1-11.8-5.5-16.2h-.1ZM271.8,120l-23.8-23.8-6.2-6.2c-1.2-1.2-2.1-2.5-2.8-4-2.8-5.6-1.8-12.6,2.8-17.2s6.8-4.4,10.6-4.4h1.7c.8-1.4,1.4-2.8,2.1-4.1-6.1-1.2-12.7.6-17.4,5.3-6.4,6.4-7.4,16.3-2.8,23.8.8,1.3,1.7,2.5,2.8,3.6l5.5,5.5,24.4,24.4c2.1,2.1,4.6,3.6,7.2,4.6,1.1-.7,2.3-1.5,3.5-2.2h0c-.3-.6-.6-1.1-.9-1.6-2.5-.6-4.9-1.9-6.8-3.9v.2Z"/>
  <g>
    <path class="st10" d="M121,252.8h-.2c1.9-.5,3.6-1.4,5.3-2.5,1.6-1.1,3.2-2.3,4.6-3.8,1.4-1.4,2.7-2.9,3.9-4.5,1.1-1.5,2.1-3,2.9-4.5s1.5-3.2,2.2-5c.6-1.9,1.2-4,1.7-6.5s1.1-5.5,1.7-9c.4-2,.7-3.9.9-6,.2-2,.3-4,.3-5.8,0-3.2-.4-6.1-1.2-8.7-.9-2.6-2.1-4.8-3.6-6.6-1.6-1.8-3.5-3.2-5.7-4.2s-4.7-1.5-7.4-1.5c-4.4,0-9.2,1-14.6,3.3l-.3-.3c.4-1.2.9-2.4,1.4-3.6.5-1.1,1-2.3,1.6-3.6v-1.3c-.6.4-1.1.8-1.6,1.2-.5.4-.9.9-1.5,1.5-.7,1-1.6,2.2-2.5,3.8-1,1.6-1.9,3.4-2.9,5.3-2.1,1.1-4.2,2.3-6.2,3.5s-4.1,2.6-6.2,4.1c-.3.2-.6.5-.8.7-.3.3-.5.5-.6.8-1.9,5.7-3.4,10.1-4.5,13.2-1,3.1-1.5,4.8-1.5,5v.6c0,.2.2.3.4.3s.5-.2.9-.5c.3-.3.6-.6.9-.9,1.6-1.6,3.2-3.1,5-4.5,1.8-1.4,3.9-2.9,6.2-4.3h.3c-.9,4-1.5,7.3-1.8,10.1-.4,2.8-.5,5.4-.6,7.7,0,5.1.4,9.4,1.4,12.9s2.3,6.3,4,8.4c1.7,2.2,3.6,3.7,5.7,4.6,2.1.9,4.2,1.4,6.3,1.5,2.2,0,4.2-.3,6.1-.9ZM109.7,234.6c-1.5-.7-2.8-1.7-4-3.1-1.2-1.4-2.1-3.2-2.7-5.3-.7-2.1-1-4.7-.9-7.6,0-1.4.3-3.1.9-5.1s1.5-4.3,2.7-6.8c1.1-.8,2.3-1.6,3.7-2.4,1.4-.7,2.9-1.3,4.4-1.8s3.1-.9,4.7-1.2c1.6-.3,3.2-.4,4.6-.4,2.2,0,4.3.4,6.2,1.2,1.9.8,3.6,1.8,5,3,1.4,1.2,2.5,2.7,3.2,4.3.7,1.6,1.1,3.3,1.1,4.9s-.7,4-2,6.5c-1.3,2.5-3.1,4.8-5.2,7-2.2,2.2-4.7,4.1-7.7,5.6-2.9,1.5-6,2.3-9.3,2.2-1.7,0-3.3-.4-4.8-1.1h.1Z"/>
    <path class="st10" d="M337,65.9l-.2.4c-.8-3.4-1.9-6.8-3.3-10-1.4-3.2-3.1-6.3-5-9.2-1.9-2.9-4-5.4-6.3-7.5-2.2-2.2-4.6-3.9-7.1-5.2s-4.9-1.9-7.4-2c-3.2,0-6,.7-8.4,2.1-2.5,1.5-4.6,3.4-6.3,5.7-1.6,2.1-2.9,4.5-4.1,7.2-1.1,2.7-2.1,5.4-2.8,8.2s-1.3,5.5-1.6,8.1c-.4,2.6-.5,5-.6,7,0,2,0,3.4.3,4.3.2.9.6,1.3,1.2,1.3.9,0,1.5-.8,1.6-2.4.6-8.1,2.4-14.1,5.6-17.9,3.1-3.9,7.2-5.8,12.2-5.7,4.2,0,8.1,1.5,11.6,4.2,3.5,2.7,6.7,6.7,9.7,11.8,2.1,3.5,3.6,7,4.5,10.6,1,3.6,1.4,6.9,1.4,9.7s-.4,3.4-1.2,5.1c-.8,1.7-2,3.4-3.4,5.1-1.5,1.7-3.2,3.3-5.2,4.9-2,1.6-4.2,3.1-6.6,4.6l-.6-.3c.3-1.6.6-3.3,1-5.2.4-1.8.7-3.5,1.1-5.2.4-1.7.7-3.4.9-4.9.3-1.5.4-2.9.4-4,0-2.7-.3-5.1-1.1-7.2-.7-2.1-1.8-3.9-3-5.3-1.3-1.5-2.8-2.6-4.5-3.3-1.7-.8-3.5-1.2-5.5-1.2s-5.2.5-7.8,1.5c-2.7,1-5.3,2.7-7.9,4.9-1,.9-2,1.9-2.9,2.9-1,1.2-1.9,2.4-2.7,3.6-.6,1-1.2,1.9-1.6,2.9-.1.3-.3.6-.5,1.1-1.9,4.2-2.8,7.7-3.3,10.3-.6,3-1,5.4-1.3,7.2-.3,1.9-.4,3.4-.4,4.7,0,6.1.9,11,2.7,14.7,0,0,.1.2.2.3,0,0,0,.2.1.2,4-.3,7.8-2,10.9-5.1,3.1-3.1,3.1-3.9,4-6.1-1.5-.1-3-.4-4.3-.8-1.8-.6-3.3-1.3-4.6-2.4-1.3-1-2.3-2.2-3-3.7-.7-1.4-1-3-1-4.8.3-1.6,1.1-3.3,2.2-5.2.9-1.4,2.1-2.8,3.4-4,.2-.2.4-.4.6-.6,0-.1.3-.2.4-.4.8-.6,1.6-1.2,2.4-1.7,1.1-.7,2.4-1.4,3.7-1.9.2,0,.4-.1.5-.2,2.1-.8,4.4-1.2,6.7-1.2s3.4.4,4.8,1.1c1.5.7,2.7,1.6,3.7,2.8,1,1.1,1.8,2.4,2.4,3.9.5,1.5.8,3,.8,4.7s-.6,3.3-1.8,5.4c-1.2,2-2.9,4.1-5.3,6.2-.5.2-1,.5-1.5.8-.5.3-1,.5-1.5.8-.5,2.2-1.7,6.6-5,10.8-1.2,1.5-3,3.3-5.4,5-2.6,1.8-5.1,2.8-7.3,3.5-1.2.3-2.3.6-3.4.8,0,0,0,0,0,0h0c-1.7.3-3.1.5-4,.6-1.3.1-3.1.2-5.1-.3-.6-.1-1-.3-1.3-.4-2.5,2-4.5,4-5.9,5.7-.9,1-2.8,3.2-4.7,6.4-1.3,2.2-2.5,4.6-3.6,7-.7,1.6-1.4,3.3-2,4.9-.6,1.6-1.1,3.1-1.5,4.5v.2h0c-.1.5-.3,1-.4,1.4,0,.3,0,.6-.2.8-.3,1-.5,2-.7,2.9-.4,1.8-.6,3.5-.6,5.2s0,3.2.3,4.5c.2,1.3.5,2.4.9,3.4l-.2.6c-5.2,1.8-10,3.9-14.4,6.5-4.4,2.6-8.3,5.4-11.9,8.4s-6.8,6.1-9.5,9.3c-1.4,1.6-2.7,3.2-3.9,4.8,0,0-.1.2-.2.2-.2.2-.4.4-.5.7-.2.3-.4.6-.7.9-.3.4-.5.7-.8,1.1,0,.1-.2.2-.2.3,0,.2-.3.4-.4.6-.2.3-.4.6-.6.8-1.1,1.6-2,3.2-2.8,4.8h0c-1.3,2.4-2.6,4.8-3.8,7.4-2.1,4.3-4.3,8.9-6.6,13.7-2.3,4.9-5,10-8,15.3s-6.6,10.7-10.7,16.3c-4.1,5.6-9,11.2-14.6,16.7-1.9,1.9-4.2,3.9-6.7,6-2.5,2.1-5.1,4.1-8,6.2-2.8,2.1-5.7,4.1-8.7,6.1s-5.9,3.9-8.7,5.7c-2.8,1.8-5.6,3.4-8.2,4.9-2.6,1.5-4.9,2.8-7,3.9-.4.2-.7.4-.9.6-.2.1-.3.3-.3.6s0,.4.2.5c.2,0,.4,0,.6,0,.4,0,1.3-.2,2.5-.6,1.2-.4,2.9-.9,4.8-1.5,1.9-.6,4.2-1.3,6.8-2.1,2.6-.7,5.5-1.5,8.6-2.2,4-.9,7.9-2,11.7-3.3s7.5-2.9,11-4.8c3.5-1.8,6.8-4,9.8-6.4,3.1-2.4,5.9-5.1,8.5-8.2,2.9-3.4,5.4-6.8,7.5-10.4,2.1-3.5,4.1-7.2,5.8-10.8,1.7-3.7,3.4-7.4,5-11.2,1.5-3.8,3.2-7.6,5-11.4,1.8-3.8,3.8-7.7,6.1-11.6,2.2-3.9,4.9-7.8,8-11.8,1.2-1.5,2.3-2.9,3.5-4.2,0,0,.2-.2.3-.3.1,0,.3-.3.4-.4,0,0,.2-.2.3-.3,1.6-1.6,3.3-3.2,5.1-4.8,3.6-3.2,7.4-6,11.2-8.5s7.6-4.5,11.3-6c3.7-1.5,7-2.2,9.8-2.2s5.7.3,8.5.7c2.8.4,5.7,1.1,8.7,2,1.7-1.3,3.3-2.9,4.8-4.6,1.4-1.8,2.7-3.6,3.7-5.6s1.8-3.9,2.4-5.9c.6-2,.9-3.8.9-5.6s-.7-3.5-2-4.7c-1.4-1.2-3.2-2.3-5.2-3.2-2.1-.9-4.4-1.7-6.8-2.5-2.4-.7-4.7-1.5-6.8-2.4-2.1-.9-3.8-2-5.2-3.2-1.2-1.1-1.9-2.5-2-4.2,0-.2.3-.4.5-.6,1.6-2,3.4-4,5.4-6,3-2.8,6.3-5.3,9.7-7.5s6.8-4.2,10.3-6,7-3.5,10.4-5.1c3.4-1.6,6.8-3.2,10.1-4.7,3.3-1.6,6.4-3.2,9.3-4.8,2.9-1.7,5.7-3.5,8.1-5.5,2.5-2,4.6-4.2,6.5-6.6,1.9-2.4,3.3-5.1,4.4-8.2.6-1.8,1.2-3.9,1.7-6.4s1-5,1.4-7.7c.4-2.7.8-5.2,1-7.7s.4-4.6.4-6.4c0-3.3-.3-6.6-1.1-10Z"/>
    <path class="st10" d="M92.9,117.2c2.5,2.1,5.2,3.6,8,4.5,2.8.9,5.7,1.3,8.7,1,3.4-.3,6.6-1.1,9.5-2.5,3-1.4,5.8-3.5,8.4-6.3,1.7-1.8,3.1-3.7,4.3-5.8,1.2-2.1,2.2-4.2,3-6.3.8-2.1,1.5-4.1,2.1-6,.6-1.9,1.2-3.6,1.8-5.1.6-1.5,1.2-2.7,1.9-3.7.7-.9,1.5-1.5,2.5-1.5s2,0,2.9.4c.9.3,1.9.8,2.9,1.4,1,.5,2.1,1.2,3.4,1.8,1.3.6,2.7,1.3,4.3,1.8,1.6.5,3.5.9,5.6,1.2,2.1.3,4.6.3,7.4,0,1.6,0,3.5-.5,5.6-1.1,2.1-.6,4.4-1.4,6.8-2.5,2.4-1.1,4.8-2.5,7.4-4.1,2.5-1.6,5-3.6,7.4-5.9,2.4-2.3,4.7-4.8,6.8-7.8,2.1-3,4.2-5.7,5.8-9.9.5-1.2.8-2.3,1-3-1.1-1.1-2.3-2.3-3.4-3.4-.6-.6-1.3-1.3-1.9-2.2-.6-.8-1.1-1.7-1.5-2.4-1.4,1.9-3.3,4.3-5.8,6.9-1.9,2-4.7,4.9-8.9,7.8-3,2.1-6.1,3.8-9.2,5.1-3,1.2-6,2-8.9,2.2-1,0-2,.2-3,.2s-2,0-3-.2l-.3-.5c1.6-6.6,3.5-12.6,5.6-18,2.1-5.4,4.5-10,7.1-13.8,2.6-3.8,5.5-6.8,8.8-9,3.2-2.2,6.8-3.5,10.6-3.8,2.1-.2,4,0,5.6.6.4.2.8.3,1.2.5,1.1.5,2,1,2.9,1.7,1.1.9,1.9,1.9,2.5,3h0c.6,1.2,1,2.5,1,3.6s0,1.2-.2,1.9c-.2.8-.4,1.6-.7,2.5-.2.7-.5,1.4-.7,2,.3,1,.7,2.2,1.4,3.5.7,1.4,1.6,2.4,2.2,3.1l.7.7c.2-1.3.4-3,.6-4.5.3-2.3.5-4.9.7-7.7.2-3,.4-4.5.4-5.7,0-2.6,0-4.7,0-6.2-.2-2.7-.7-4.5-1.6-6.5,0,0,0-.2,0-.3-1-2.1-2.3-3.8-3.9-5.2s-3.4-2.4-5.5-3c-2.1-.6-4.3-.8-6.7-.7-4.8.4-9.3,2.2-13.4,5.5-4.1,3.3-7.8,7.6-11,13-3.2,5.4-6,11.8-8.4,19.1-2.4,7.3-4.3,15.1-5.7,23.5l-.6.2c-1.4,0-2.9-.6-4.4-1.5-1.5-.9-3-1.8-4.4-2.9-1.5-1-2.9-2-4.2-2.8-1.3-.8-2.4-1.2-3.3-1.1-1.1,0-2.1.9-3,2.4-.9,1.5-1.8,3.3-2.6,5.5-.8,2.1-1.6,4.4-2.4,6.8-.8,2.4-1.7,4.5-2.6,6.3-1.2,2.6-2.7,4.9-4.3,7.1-1.7,2.2-3.4,4.1-5.3,5.7-1.9,1.6-3.8,2.9-5.7,3.8-2,1-3.9,1.5-5.7,1.7-3,.2-5.6,0-8-.6-2.4-.6-4.6-1.8-6.5-3.4-1.9-1.6-3.7-3.8-5.3-6.5-.3-.6-.7-1.2-1-1.8-1.2-2.2-2.3-4.7-3.5-7.4,0-.4-.3-.8-.4-1.1-.6-1.6-1.3-3.3-1.9-5,0,0,0-.3,0-.4-1.9-5.4-3.7-10.7-5.4-15.9s-3.3-10-4.6-14.6c-1.3-4.6-2.5-8.8-3.4-12.7-.9-3.9-1.4-7.3-1.7-10.2,0-.5,0-1.1,0-1.7v-1.5l-.8-.4c-2.1,4.7-3.5,8.8-4.3,12.3-.8,3.5-1.1,6.4-.9,8.9.2,2.8.8,6.1,1.8,9.7.9,3.7,2.1,7.6,3.4,11.7,1.3,4.1,2.7,8.3,4.1,12.6,1.5,4.3,2.8,8.5,4.1,12.5,1.3,4,2.4,7.8,3.3,11.3.9,3.5,1.5,6.5,1.7,9.1.3,3.8,0,7.9-.8,12.2s-2.1,8.6-3.9,12.9c-1.8,4.3-4,8.4-6.7,12.4s-5.7,7.6-9.1,10.8c-3.4,3.2-7.1,5.8-11.2,7.8-4.1,2-8.3,3.2-12.9,3.6-3.4.3-6.8,0-10-.8-3.2-.8-6-2.3-8.6-4.4-2.5-2.1-4.6-4.8-6.3-8.2-1.7-3.4-2.7-7.6-3.1-12.5-.2-2.9,0-6,.3-9.2.4-3.2,1.3-6.5,2.6-9.8,1.3-3.3,3-6.7,5.2-10,2.2-3.3,4.9-6.7,8.2-9.9,2.3-2.3,4.9-4.5,7.8-6.7,2.9-2.2,6.1-4.2,9.6-6.3,3.5-2.1,7.4-4.1,11.7-6.1,4.3-2,9-4.1,14.2-6.2.4-.2.7-.4.9-.7s.3-.6.3-.8c0-.3-.3-.5-.7-.6-.5,0-.9,0-1.3,0-3.4,1.1-7.2,2.4-11.2,3.9-4.1,1.5-8.3,3.4-12.6,5.6s-8.7,4.9-13.1,8c-4.4,3.1-8.6,6.8-12.7,11.1-2.9,3.2-5.4,6.4-7.3,9.5-2,3.2-3.6,6.3-4.8,9.4-1.2,3.1-2.2,6-2.8,8.8-.6,2.8-1,5.5-1.2,7.9-.2,2.5-.3,4.7-.3,6.7s.1,3.7.3,5c.4,5.7,1.6,10.9,3.5,15.7,1.9,4.8,4.4,8.9,7.5,12.3,3.1,3.4,6.8,6,11.1,7.7s9.1,2.4,14.4,2c3.7-.3,7.5-1.2,11.3-2.7,3.8-1.5,7.5-3.5,11-6.1,3.5-2.6,6.8-5.7,9.9-9.4,3.1-3.7,5.8-7.9,8.1-12.6,2.3-4.7,4.2-9.9,5.7-15.6,1.4-5.7,2.3-11.9,2.5-18.6.2-2.8.2-5.8,0-8.9,0-2.2-.2-4.3-.3-6.3.2.3.4.7.7,1,2.3,3.3,4.7,6.1,7.2,8.2Z"/>
    <path class="st10" d="M212.4,112.6c0,.3.4.5,1.2.3.2,0,.5-.2,1-.5.5-.2,1.1-.6,1.8-1s1.4-.8,2.2-1.2c.8-.4,1.5-.8,2.3-1.1,1.6-.7,3.6-1.5,6.2-2.4,2.6-1,5.5-2.1,8.5-3.5.5-.2,1-.5,1.5-.7,2.4-1.1,4.8-2.4,7.3-3.9.1-.1.3-.2.5-.3,1.1-.6,2.1-1.3,3.1-2,2.1-1.5,4.1-3.2,6-5.1,2.7-2.6,5-5.4,7-8.6s3.6-6.8,4.7-10.8c0-.2,0-.4.1-.5,0-.1,0-.2.1-.4,0-.1,0-.3,0-.3,0,0-.1-.1-.2-.2-.5-.5-.9-1-1.4-1.5-1.1-1.1-3.1-2.7-5.9-3.8-1.6-.6-3.1-.9-4.3-1,0,0-.2.3-.2.4-.7,1.4-1.6,2.9-2.5,4.4-1.2,2.1-2.6,4.2-4.2,6.4-1.6,2.3-3.4,4.7-5.4,7.1-.9,1.2-2,2.5-3,3.7-.3.4-.6.8-1,1.2-.5.6-1,1.2-1.6,1.8-.2,0-.3.3-.4.4-1.7,1.9-3.5,3.8-5.4,5.7-3.9,3.9-8.1,7.9-12.8,11.9-.4.4-1,.8-1.6,1.4s-1.2,1.1-1.8,1.7c-.5.6-1,1.1-1.4,1.5-.3.5-.5.8-.5.9Z"/>
    <path class="st10" d="M228.5,30.5c.1,1.7.3,3,.5,4,.3,1.3.9,2.6,1.8,3.8.8,1.2,2,2.2,3.3,3.1,1.3.9,2.8,1.5,4.5,1.8,1.7.4,3.4.3,5.4,0s3.7-1.2,5.4-2.4c1.7-1.1,3.3-2.8,4.8-4.9l.7-.2c1.5.7,2.6,1.7,3.4,2.9.8,1.2,1.4,2.6,1.7,4.1.7,2.8.3,6.5-1.1,11-.2,1-.6,2-1,3,3.4.8,6.7,2.3,9.5,4.4v-2.7h0c0-5.1-.5-10.6-1.7-16.8-.3-1-.5-2.1-.7-3.2-.2-1.1-.4-2.2-.5-3.3-.5-2.2-1.1-4.3-1.7-6.3-.6-2.1-1.2-4.1-2.1-6.1-.9-2-1.8-4-2.9-6s-2.4-4.1-3.8-6.2c-1.2-1.8-2.5-3.4-3.9-4.8-1.4-1.4-2.8-2.6-4.4-3.5-1.6-.9-3.2-1.6-4.9-1.9-1.6-.4-3.4-.4-5.1,0-1.3.3-2.5.8-3.5,1.6s-1.8,1.7-2.4,2.8c-.6,1.1-1,2.4-1.3,3.8-.3,1.4-.4,2.9-.4,4.4v6c.1,2.2.1,4.2.1,6.2,0,2,.2,3.8.3,5.5Z"/>
  </g>
</svg>